<svg xmlns="http://www.w3.org/2000/svg" width="383" height="138" viewBox="0 0 383 138">
  <g id="google_play" data-name="google play" transform="translate(-977 -818)">
    <path id="Background" d="M977,826a8,8,0,0,1,8-8h367a8,8,0,0,1,8,8V948a8,8,0,0,1-8,8H985a8,8,0,0,1-8-8Z" fill="#fff" opacity="0.451"/>
    <g id="headline">
      <text id="Get_It_On" data-name="Get It On" transform="translate(1027.5 870)" fill="#fff" font-size="20" font-family="Poppins-Medium, Poppins" font-weight="500"><tspan x="0" y="0">Get It On</tspan></text>
      <text id="Apple_Store" data-name="Apple Store" transform="translate(1027.5 911.6)" fill="#fff" font-size="36" font-family="Poppins-Bold, Poppins" font-weight="700"><tspan x="0" y="0">Apple Store</tspan></text>
    </g>
    <g id="icon">
      <path id="nutrition" d="M1279.5,903a11.707,11.707,0,0,1-11.779-11.779,11.567,11.567,0,0,1,2.335-7.089,11.365,11.365,0,0,1,6.121-4.228,5.867,5.867,0,0,1-2.419-1.2,6.7,6.7,0,0,1-1.662-2.083,9.223,9.223,0,0,1-.883-2.65,10.054,10.054,0,0,1-.084-2.9,8.452,8.452,0,0,1,6.1,1.557,8.076,8.076,0,0,1,2.082,2.229,6.742,6.742,0,0,1,.989,2.945,14.312,14.312,0,0,1,3.071-4.586,1.666,1.666,0,0,1,2.356,2.356,12.146,12.146,0,0,0-1.641,2.04,8.368,8.368,0,0,0-1.052,2.377,11.748,11.748,0,0,1,8.245,11.232A11.707,11.707,0,0,1,1279.5,903Z" fill="#fff"/>
    </g>
  </g>
</svg>
